<svg xmlns="http://www.w3.org/2000/svg" viewBox="0 0 1280 720" role="img" aria-labelledby="title desc">
  <title id="title">Reset AnyDesk</title>
  <desc id="desc">Preview visual do software Reset AnyDesk.</desc>
  <defs>
    <linearGradient id="bg" x1="0" y1="0" x2="1" y2="1">
      <stop offset="0" stop-color="#0b0f18"/>
      <stop offset="1" stop-color="#141926"/>
    </linearGradient>
    <linearGradient id="cyan" x1="0" y1="0" x2="1" y2="0">
      <stop offset="0" stop-color="#20c5db"/>
      <stop offset="1" stop-color="#00d9ff"/>
    </linearGradient>
    <filter id="shadow" x="-20%" y="-20%" width="140%" height="140%">
      <feDropShadow dx="0" dy="20" stdDeviation="24" flood-color="#000814" flood-opacity=".44"/>
    </filter>
  </defs>
  <rect width="1280" height="720" fill="#070a10"/>
  <g filter="url(#shadow)">
    <rect x="350" y="22" width="580" height="676" rx="10" fill="url(#bg)" stroke="#314050" stroke-width="2"/>
    <rect x="350" y="22" width="580" height="58" rx="10" fill="#1b1f2b"/>
    <rect x="350" y="68" width="580" height="12" fill="#1b1f2b"/>
    <circle cx="374" cy="50" r="8" fill="#0b1220" stroke="#293547"/>
    <circle cx="374" cy="50" r="4" fill="#00d9ff"/>
    <text x="398" y="55" fill="#a4adbb" font-family="Arial, Helvetica, sans-serif" font-size="16">Reset AnyDesk</text>
    <line x1="770" y1="51" x2="784" y2="51" stroke="#9aa4b2" stroke-width="2"/>
    <rect x="818" y="42" width="14" height="14" fill="none" stroke="#9aa4b2" stroke-width="2"/>
    <path d="M876 43 L890 57 M890 43 L876 57" stroke="#9aa4b2" stroke-width="2"/>

    <text x="640" y="142" text-anchor="middle" fill="#00d9ff" font-family="Arial, Helvetica, sans-serif" font-size="38" font-weight="800">Reset AnyDesk</text>

    <rect x="382" y="178" width="516" height="134" rx="12" fill="#181d29" stroke="#222a3a"/>
    <text x="408" y="219" fill="#62708a" font-family="Arial, Helvetica, sans-serif" font-size="16">Proximo reset disponivel em</text>
    <text x="408" y="268" fill="#ffb000" font-family="Arial, Helvetica, sans-serif" font-size="38" font-weight="800">Resetando...</text>
    <rect x="382" y="303" width="516" height="6" fill="url(#cyan)"/>

    <rect x="382" y="332" width="244" height="106" rx="10" fill="#181d29" stroke="#222a3a"/>
    <rect x="654" y="332" width="244" height="106" rx="10" fill="#181d29" stroke="#222a3a"/>
    <text x="504" y="372" text-anchor="middle" fill="#465574" font-family="Arial, Helvetica, sans-serif" font-size="16">Resets</text>
    <text x="776" y="372" text-anchor="middle" fill="#465574" font-family="Arial, Helvetica, sans-serif" font-size="16">Forcados</text>
    <text x="504" y="419" text-anchor="middle" fill="#00d9ff" font-family="Arial, Helvetica, sans-serif" font-size="36" font-weight="800">0</text>
    <text x="776" y="419" text-anchor="middle" fill="#00d9ff" font-family="Arial, Helvetica, sans-serif" font-size="36" font-weight="800">0</text>

    <rect x="382" y="462" width="252" height="64" rx="12" fill="url(#cyan)"/>
    <rect x="654" y="462" width="244" height="64" rx="12" fill="#121826" stroke="#00d9ff" stroke-width="2"/>
    <text x="508" y="502" text-anchor="middle" fill="#07111d" font-family="Arial, Helvetica, sans-serif" font-size="17" font-weight="800">Resetar</text>
    <text x="776" y="502" text-anchor="middle" fill="#00d9ff" font-family="Arial, Helvetica, sans-serif" font-size="17" font-weight="800">Forcar</text>

    <rect x="382" y="548" width="516" height="72" rx="12" fill="#181d29" stroke="#222a3a"/>
    <circle cx="416" cy="584" r="12" fill="none" stroke="#0f70ff" stroke-width="7" stroke-dasharray="6 8"/>
    <text x="446" y="588" fill="#62708a" font-family="Arial, Helvetica, sans-serif" font-size="16">Pronto para resetar</text>
    <rect x="416" y="606" width="430" height="5" rx="3" fill="#0c1019"/>
    <rect x="416" y="606" width="285" height="5" rx="3" fill="url(#cyan)"/>

    <rect x="382" y="636" width="516" height="44" rx="10" fill="#181d29" stroke="#222a3a"/>
    <text x="414" y="663" fill="#00d9ff" font-family="Arial, Helvetica, sans-serif" font-size="13" font-weight="800">LOG</text>
    <text x="640" y="690" text-anchor="middle" fill="#3f4c68" font-family="Arial, Helvetica, sans-serif" font-size="12">Desenvolvido por Estevao Miguel - TSCBr</text>
  </g>
</svg>
