<svg xmlns="http://www.w3.org/2000/svg" viewBox="0 0 1280 720" role="img" aria-labelledby="title desc">
  <title id="title">WebCond</title>
  <desc id="desc">Preview visual do SaaS WebCond para gestao condominial.</desc>
  <defs>
    <linearGradient id="bg" x1="0" y1="0" x2="1" y2="1">
      <stop offset="0" stop-color="#07111d"/>
      <stop offset="1" stop-color="#0d1624"/>
    </linearGradient>
    <linearGradient id="green" x1="0" y1="0" x2="1" y2="0">
      <stop offset="0" stop-color="#1f7a42"/>
      <stop offset="1" stop-color="#44b34f"/>
    </linearGradient>
  </defs>
  <rect width="1280" height="720" fill="url(#bg)"/>
  <g opacity=".14" stroke="#2b4056" stroke-width="1">
    <path d="M0 72H1280M0 144H1280M0 216H1280M0 288H1280M0 360H1280M0 432H1280M0 504H1280M0 576H1280M0 648H1280"/>
    <path d="M80 0V720M160 0V720M240 0V720M320 0V720M400 0V720M480 0V720M560 0V720M640 0V720M720 0V720M800 0V720M880 0V720M960 0V720M1040 0V720M1120 0V720M1200 0V720"/>
  </g>
  <circle cx="1130" cy="690" r="210" fill="#2fb35b" opacity=".14"/>
  <g font-family="Arial, Helvetica, sans-serif" text-anchor="middle">
    <g transform="translate(640 125)">
      <path d="M-26 25 V-5 L0 -22 L26 -5 V25" fill="none" stroke="#1266d8" stroke-width="8" stroke-linejoin="round"/>
      <path d="M-30 26 C-8 10, 9 44, 34 20" fill="none" stroke="#46b64f" stroke-width="7" stroke-linecap="round"/>
      <text x="0" y="78" font-size="34" font-weight="900"><tspan fill="#1266d8">Web</tspan><tspan fill="#46b64f">Cond</tspan></text>
      <text x="0" y="108" fill="#8b96a8" font-size="15" font-weight="700">Gestao condominial simples e completa</text>
    </g>
    <text x="640" y="255" fill="#f5f7fb" font-size="34" font-weight="900">Acesse sua area do condominio</text>
    <text x="640" y="292" fill="#8995a8" font-size="17" font-weight="700">Entre com seu CPF e senha para visualizar cobrancas, comunicados e informacoes</text>
    <text x="640" y="317" fill="#8995a8" font-size="17" font-weight="700">da sua unidade.</text>
  </g>
  <g transform="translate(390 350)">
    <rect width="500" height="250" rx="13" fill="#111a27" stroke="#223449"/>
    <rect x="25" y="25" width="220" height="34" rx="9" fill="#173b2d" stroke="#24513e"/>
    <text x="135" y="48" fill="#fff" font-family="Arial, Helvetica, sans-serif" font-size="13" font-weight="800" text-anchor="middle">Entrar</text>
    <text x="338" y="48" fill="#8d96a5" font-family="Arial, Helvetica, sans-serif" font-size="13" font-weight="800">Sou sindico / cadastrar condominio</text>
    <text x="25" y="92" fill="#f1f5f9" font-family="Arial, Helvetica, sans-serif" font-size="13" font-weight="900">CPF</text>
    <rect x="25" y="108" width="450" height="38" rx="9" fill="#151f2e" stroke="#253246"/>
    <text x="52" y="133" fill="#6e7787" font-family="Arial, Helvetica, sans-serif" font-size="16" font-weight="700">000.000.000-00</text>
    <text x="25" y="176" fill="#f1f5f9" font-family="Arial, Helvetica, sans-serif" font-size="13" font-weight="900">SENHA</text>
    <rect x="25" y="192" width="450" height="38" rx="9" fill="#151f2e" stroke="#253246"/>
    <text x="52" y="217" fill="#6e7787" font-family="Arial, Helvetica, sans-serif" font-size="16" font-weight="700">Digite sua senha</text>
    <rect x="25" y="246" width="450" height="38" rx="9" fill="url(#green)"/>
    <text x="250" y="270" fill="#fff" font-family="Arial, Helvetica, sans-serif" font-size="14" font-weight="900" text-anchor="middle">Entrar</text>
  </g>
</svg>
